[Header]
FileType HTR
DataType HTRS
FileVersion 1
NumSegments 22
NumFrames 5
DataFrameRate 24
EulerRotationOrder ZYX
CalibrationUnits mm
RotationUnits Degrees
GlobalAxisofGravity Y
BoneLengthAxis Y
ScaleFactor 1.0
[SegmentNames&Hierarchy]
reference	GLOBAL
Hips	reference
Spine	Hips
Spine1	Spine
Neck	Spine1
Head	Neck
LeftShoulder	Spine1
LeftArm	LeftShoulder
LeftForeArm	LeftArm
LeftHand	LeftForeArm
RightShoulder	Spine1
RightArm	RightShoulder
RightForeArm	RightArm
RightHand	RightForeArm
LeftUpLeg	Hips
LeftLeg	LeftUpLeg
LeftFoot	LeftLeg
LeftToeBase	LeftFoot
RightUpLeg	Hips
RightLeg	RightUpLeg
RightFoot	RightLeg
RightToeBase	RightFoot
[BasePosition]
reference	0	0	0	0	0	0	1
Hips	0	0	0	0	0	0	1
Spine	0	0	0	0	-0	90	1
Spine1	0	0	0	0	0	0	1
Neck	0	0	0	-7.352327771	-7.352327771	90	1
Head	0	0	0	0	-0	90	1
LeftShoulder	0	0	0	0	0	0	1
LeftArm	0	0	0	0	0	0	1
LeftForeArm	0	0	0	0	0	0	1
LeftHand	0	0	0	0	0	0	1
RightShoulder	0	0	0	0	-0	180	1
RightArm	0	0	0	0	-0	180	1
RightForeArm	0	0	0	0	-0	180	1
RightHand	0	0	0	0	-0	180	1
LeftUpLeg	0	0	0	0	-0	-90	1
LeftLeg	0	0	0	0	-0	-90	1
LeftFoot	0	0	0	66.57146043	-66.57146043	-90	1
LeftToeBase	0	0	0	0	-90	0	1
RightUpLeg	0	0	0	0	-0	-90	1
RightLeg	0	0	0	0	-0	-90	1
RightFoot	0	0	0	66.57146043	-66.57146043	-90	1
RightToeBase	0	0	0	0	-90	0	1
[reference]
55	0	0	0	0	-0	0	1.0
56	0	0	0	0	-0	0	1.0
57	0	0	0	0	-0	0	1.0
58	0	0	0	0	-0	0	1.0
59	0	0	0	0	-0	0	1.0
[Hips]
55	3.472874641	8.450180054	1.403828263	4.795181274	-135.8092346	1.730438232	1.0
56	3.492409706	8.465877533	1.408752203	4.2940979	-136.1704102	1.311976671	1.0
57	3.593034983	8.472781181	1.413594723	3.779220581	-136.2166901	0.6997511387	1.0
58	3.739377975	8.473592758	1.418938875	3.796174049	-136.061203	-0.3155899048	1.0
59	3.931324244	8.451496124	1.425367594	3.909359694	-135.6397552	-1.347006798	1.0
[Spine]
55	0	0.7457100153	0	-6.97947216	-0.5433369875	-91.43519592	1.0
56	0	0.7457100153	0	-6.926399231	-0.5383773446	-91.28883362	1.0
57	0	0.7457100153	0	-6.719013691	-0.3804747164	-91.1385498	1.0
58	0	0.7457100153	0	-6.199552059	-0.1162124872	-91.23664856	1.0
59	0	0.7457100153	0	-5.416003227	0.007182468195	-91.32489777	1.0
[Spine1]
55	0	2.140589952	0	2.029757023	-0.2537996471	4.548269272	1.0
56	0	2.140589952	0	2.099137306	-0.2379057556	4.571210861	1.0
57	0	2.140589952	0	2.113251209	-0.1870109439	4.273276329	1.0
58	0	2.140589952	0	1.867329717	-0.08434660733	3.614164829	1.0
59	0	2.140589952	0	1.83799839	-0.01311838347	2.919256449	1.0
[Neck]
55	0	2.32246995	0	-18.87914276	16.75443459	-89.573349	1.0
56	0	2.32246995	0	-17.3829689	16.77245331	-90.0165329	1.0
57	0	2.32246995	0	-15.56812286	16.72078514	-90.51332855	1.0
58	0	2.32246995	0	-14.03303432	16.70068169	-90.92941284	1.0
59	0	2.32246995	0	-12.9671154	16.64185333	-91.67037964	1.0
[Head]
55	0	1.409579992	0.1818799973	-1.843006968	10.10645485	-92.38774109	1.0
56	0	1.409579992	0.1818799973	-1.905988574	10.13768959	-92.28910828	1.0
57	0	1.409579992	0.1818799973	-2.044399977	10.11067486	-92.45833588	1.0
58	0	1.409579992	0.1818799973	-1.920798302	10.1231451	-92.71972656	1.0
59	0	1.409579992	0.1818799973	-2.400096893	10.06759453	-92.84450531	1.0
[LeftShoulder]
55	0.3668199778	1.946700096	-0.02662999928	-18.33859253	-14.11732769	1.918898702	1.0
56	0.3668199778	1.946700096	-0.02662999928	-18.38529015	-13.9585886	1.990674138	1.0
57	0.3668199778	1.946700096	-0.02662999928	-17.67735481	-13.96816349	1.647018075	1.0
58	0.3668199778	1.946700096	-0.02662999928	-17.77489662	-13.88892841	1.337532401	1.0
59	0.3668199778	1.946700096	-0.02662999928	-18.52693367	-13.79497147	1.204013109	1.0
[LeftArm]
55	1.140689969	0	0	37.43541718	-6.193214893	-62.66236877	1.0
56	1.140689969	0	0	37.85508728	-6.248049736	-62.67535019	1.0
57	1.140689969	0	0	37.91719055	-6.847344398	-62.41962051	1.0
58	1.140689969	0	0	38.32449722	-6.680326462	-62.43384171	1.0
59	1.140689969	0	0	38.59878159	-5.987767696	-62.68617249	1.0
[LeftForeArm]
55	2.749800205	0	0	63.84078979	-139.1656342	-26.19264221	1.0
56	2.749800205	0	0	64.00830841	-138.8864899	-26.30401802	1.0
57	2.749800205	0	0	63.65380859	-138.8454285	-26.15966606	1.0
58	2.749800205	0	0	62.7971344	-138.8398132	-25.73008347	1.0
59	2.749800205	0	0	62.45407486	-138.72435	-25.49384689	1.0
[LeftHand]
55	2.295179844	0	0	-3.551418781	-18.74476242	20.25541878	1.0
56	2.295179844	0	0	-3.180777073	-18.88443565	19.83694458	1.0
57	2.295179844	0	0	-3.111756086	-18.55824661	19.73958206	1.0
58	2.295179844	0	0	-3.108257771	-18.58459663	19.84815216	1.0
59	2.295179844	0	0	-2.903854132	-18.78657722	20.17153931	1.0
[RightShoulder]
55	-0.3601199985	1.946700096	-0.02662999928	-8.661644936	3.263305187	174.1516571	1.0
56	-0.3601199985	1.946700096	-0.02662999928	-8.613838196	3.307430983	174.1219482	1.0
57	-0.3601199985	1.946700096	-0.02662999928	-7.866159916	3.36076951	174.5492706	1.0
58	-0.3601199985	1.946700096	-0.02662999928	-7.693701267	3.295896292	174.8436127	1.0
59	-0.3601199985	1.946700096	-0.02662999928	-8.022027969	3.324634552	174.8557434	1.0
[RightArm]
55	-1.140689969	0	0	57.341362	6.21547699	-103.8553314	1.0
56	-1.140689969	0	0	57.34409332	5.976191044	-103.993042	1.0
57	-1.140689969	0	0	57.59812927	6.329872131	-104.4219513	1.0
58	-1.140689969	0	0	58.0394516	6.097026348	-104.4847565	1.0
59	-1.140689969	0	0	58.10962677	5.826817513	-104.253952	1.0
[RightForeArm]
55	-2.749800205	0	0	-101.3326111	43.96907806	33.54992676	1.0
56	-2.749800205	0	0	-102.3231659	43.72727203	33.35832977	1.0
57	-2.749800205	0	0	-102.2623367	43.19076538	33.51889038	1.0
58	-2.749800205	0	0	-101.4355011	43.00898361	33.97352982	1.0
59	-2.749800205	0	0	-100.8767319	43.0324707	34.39544678	1.0
[RightHand]
55	-2.295179844	0	0	1.288140297	17.30225754	154.9077454	1.0
56	-2.295179844	0	0	0.3366770446	17.34071159	155.1943512	1.0
57	-2.295179844	0	0	-0.5537138581	17.20519066	155.4891968	1.0
58	-2.295179844	0	0	-0.7947713137	17.18409729	155.3321838	1.0
59	-2.295179844	0	0	-0.9332987666	17.13759995	155.2489624	1.0
[LeftUpLeg]
55	0.9094099998	0	0	-20.84989548	7.983950615	96.96703339	1.0
56	0.9094099998	0	0	-18.08226395	7.464215755	96.96568298	1.0
57	0.9094099998	0	0	-16.30888748	7.086366177	97.0337677	1.0
58	0.9094099998	0	0	-16.69935608	6.601191044	97.09872437	1.0
59	0.9094099998	0	0	-19.78442764	4.233162403	98.89996338	1.0
[LeftLeg]
55	0	-4.498080254	0	31.78529739	-2.692975998	78.90968323	1.0
56	0	-4.498080254	0	26.80160904	-0.009310156107	81.66681671	1.0
57	0	-4.498080254	0	23.96380615	1.631603479	83.10035706	1.0
58	0	-4.498080254	0	24.65614319	2.303747177	83.31728363	1.0
59	0	-4.498080254	0	30.07596397	2.652062893	80.1000061	1.0
[LeftFoot]
55	0	-3.729400158	0	-73.9768219	105.5925598	-21.90788651	1.0
56	0	-3.729400158	0	-76.94081879	103.0023575	-28.95761299	1.0
57	0	-3.729400158	0	-79.31317902	101.8834381	-34.28764343	1.0
58	0	-3.729400158	0	-76.62011719	101.1213608	-32.56369019	1.0
59	0	-3.729400158	0	-64.6207428	102.9040375	-18.66410065	1.0
[LeftToeBase]
55	0	-0.5911099911	1.364109993	0	0	0	1.0
56	0	-0.5911099911	1.364109993	0	0	0	1.0
57	0	-0.5911099911	1.364109993	0	0	0	1.0
58	0	-0.5911099911	1.364109993	0	0	0	1.0
59	0	-0.5911099911	1.364109993	0	0	0	1.0
[RightUpLeg]
55	-0.9094099998	0	0	-1.581717968	-13.42197132	85.51780701	1.0
56	-0.9094099998	0	0	-0.5228230953	-12.76925373	85.28971863	1.0
57	-0.9094099998	0	0	1.05405724	-11.39768505	85.10403442	1.0
58	-0.9094099998	0	0	1.922840834	-9.814867973	85.01570892	1.0
59	-0.9094099998	0	0	2.100736856	-10.06050014	85.41940308	1.0
[RightLeg]
55	0	-4.498080254	0	32.12691879	-2.117997646	79.44538116	1.0
56	0	-4.498080254	0	31.64445305	0.1179741323	81.65100861	1.0
57	0	-4.498080254	0	29.68151093	1.029403925	83.8968811	1.0
58	0	-4.498080254	0	28.29893875	-1.008519769	83.43338013	1.0
59	0	-4.498080254	0	28.76980209	-1.252969861	82.89515686	1.0
[RightFoot]
55	0	-3.729400158	0	57.04577255	51.32247543	106.2963257	1.0
56	0	-3.729400158	0	56.86045456	49.85195923	103.5622787	1.0
57	0	-3.729400158	0	57.6729393	48.97200012	101.8967056	1.0
58	0	-3.729400158	0	62.01535034	51.02345276	106.4632263	1.0
59	0	-3.729400158	0	57.16231537	50.91674042	107.1705704	1.0
[RightToeBase]
55	0	-0.5911099911	1.364109993	0	0	0	1.0
56	0	-0.5911099911	1.364109993	0	0	0	1.0
57	0	-0.5911099911	1.364109993	0	0	0	1.0
58	0	-0.5911099911	1.364109993	0	0	0	1.0
59	0	-0.5911099911	1.364109993	0	0	0	1.0
[EndOfFile]
